<?xml version="1.0" encoding="UTF-8" standalone="no"?>
<!-- Created with Inkscape (http://www.inkscape.org/) -->

<svg
   xmlns:dc="http://purl.org/dc/elements/1.1/"
   xmlns:cc="http://creativecommons.org/ns#"
   xmlns:rdf="http://www.w3.org/1999/02/22-rdf-syntax-ns#"
   xmlns:svg="http://www.w3.org/2000/svg"
   xmlns="http://www.w3.org/2000/svg"
   xmlns:sodipodi="http://sodipodi.sourceforge.net/DTD/sodipodi-0.dtd"
   xmlns:inkscape="http://www.inkscape.org/namespaces/inkscape"
   width="100%"
   height="100%"
   viewBox="0 0 400 400"
   preserveAspectRatio="xMinYMin"
   id="svg10438"
   version="1.1"
   inkscape:version="0.91+devel+osxmenu r12922"
   sodipodi:docname="au-map.svg">
  <defs
     id="defs10440" />
  <sodipodi:namedview
     id="base"
     pagecolor="#ffffff"
     bordercolor="#666666"
     borderopacity="1.0"
     inkscape:pageopacity="0.0"
     inkscape:pageshadow="2"
     inkscape:zoom="0.34"
     inkscape:cx="744.49715"
     inkscape:cy="747.38042"
     inkscape:document-units="mm"
     inkscape:current-layer="layer1"
     showgrid="false"
     inkscape:window-width="1260"
     inkscape:window-height="787"
     inkscape:window-x="0"
     inkscape:window-y="23"
     inkscape:window-maximized="0" />
  <metadata
     id="metadata10443">
    <rdf:RDF>
      <cc:Work
         rdf:about="">
        <dc:format>image/svg+xml</dc:format>
        <dc:type
           rdf:resource="http://purl.org/dc/dcmitype/StillImage" />
        <dc:title></dc:title>
      </cc:Work>
    </rdf:RDF>
  </metadata>
  <g
     inkscape:label="Layer 1"
     inkscape:groupmode="layer"
     id="layer1"
     transform="translate(0,103)">
    <path
       d="m 337.81913,281.30063 c 0.76676,0.9227 2.33923,1.97538 1.24759,2.46918 2.06632,0.35083 0.24714,-1.4425 1.31254,-1.76739 1.39058,-0.42895 3.84674,1.57247 2.45622,2.10529 -0.98767,-1.88438 -1.88439,-0.312 -1.05267,0.6108 0.97469,1.10461 1.96235,0.9227 1.94938,0.14298 1.29953,2.37819 1.15659,-1.72842 1.14362,-2.28724 -1.98835,-0.14298 -1.23461,-0.90968 -1.02668,-1.70243 0.24715,-0.9747 0.80572,-1.79339 1.10462,-2.74209 0.24714,-0.76675 0.0148,-1.75441 0.50688,-2.4172 0.41567,-0.57183 1.48147,-1.20857 0.96167,-2.19628 1.18257,0.88374 1.63742,1.8974 1.4685,2.62513 1.18257,-0.49385 0.32478,-2.04033 0.0781,-3.14494 -0.3636,-1.57247 -0.0148,-2.95002 -0.0393,-4.41852 -0.0393,-1.96235 1.4425,-5.31524 -2.59915,-7.26458 -2.04029,-0.98771 -0.89667,1.09164 -2.45617,0.87068 -2.0793,-0.29874 -2.36522,0.41568 -3.44388,1.07866 -0.49381,0.31202 -9.14895,-0.7018 -5.15928,1.76739 -0.89667,0.31202 -1.44252,0.0246 -1.66342,-0.8577 -2.74209,-0.13021 -3.85971,1.75442 -7.57649,0.10414 -1.31254,-0.58481 -7.08263,-2.36522 -7.25161,-3.32689 -1.10461,0.59777 -4.00264,0.55881 -5.80904,-1.10466 -1.10466,2.36522 -0.20785,4.75642 0.77972,7.79745 0.79275,2.41715 6.38088,6.12096 4.67845,7.88835 0.22111,-0.1818 0.46776,-0.35083 0.75373,-0.50683 0.80577,1.2216 2.80709,2.67713 1.76744,3.48284 -0.31201,-0.89672 -1.27358,-1.81938 -2.52117,-2.54716 -1.40355,2.87204 3.6128,6.96568 5.90004,10.35758 0.68878,-0.53282 2.33923,0.33805 3.26194,0.0781 1.54648,1.26055 -0.0909,1.58544 -1.5595,0.68877 0.0393,0.57178 0.11693,1.16961 0.20784,1.76739 1.32557,-0.22111 4.69147,0.67575 5.12032,-0.33805 2.6901,3.32689 4.10661,-0.11694 4.50947,-0.66279 0.6108,-0.8577 0.54584,-1.27352 -0.0148,-2.40417 -0.44173,-0.89672 1.40354,-0.11695 1.67644,0.68877 2.20927,0.20784 2.37823,-3.3659 1.2866,-4.8344"
       id="path3300"
       inkscape:connector-curvature="0"
       style="fill:#ff8000;fill-opacity:0.58823532;stroke:#ffffff;stroke-width:0.99000001;stroke-miterlimit:3.97446823;stroke-dasharray:none;stroke-opacity:1" />
    <path
       d="m 19.139047,189.35621 c 2.664115,-0.0148 4.483509,-2.4822 4.860386,-4.36654 0.428851,-2.13133 -2.248251,-5.28929 -0.246904,-6.87474 -0.454844,0.42895 -0.532822,1.09164 -0.103973,1.76739 -0.233932,-0.68877 0.103973,-1.00063 0.948686,-0.84468 -1.364545,-1.84541 -0.285917,-3.50883 -0.155954,-5.04234 0.246903,-3.32689 -1.481513,-6.10798 -3.417868,-9.51285 -1.793402,-3.14494 -4.470513,-6.61481 -4.639454,-9.82471 -0.05198,-3.04102 0.454843,-7.2776 -1.000671,-10.42254 -0.610799,-1.29957 -1.767415,-2.46918 -2.183274,-3.79475 -0.44187,-1.39052 -0.727759,-2.61212 -1.715429,-3.92467 -0.935689,-1.26061 -2.5991334,-2.39121 -3.0669782,-3.78178 -0.5328261,-1.59846 -0.064957,-3.11895 -0.4288512,-4.70444 -0.7017673,-3.09296 -2.7290916,-6.3289 -5.3542183,-8.902 -1.117632,-1.09164 -2.40420037,-2.24828 -3.05398758,-3.53483 -0.59780232,-1.19561 0.41587953,-1.78041 0.0127752,-2.87205 0.54581733,0.84468 0.46786448,1.68941 0.48083615,2.52117 0.57180979,-0.71476 0.59780229,-1.66347 0.36389449,-2.59915 0.1299624,1.16962 1.24758457,2.24823 1.32555707,3.43086 -0.1559548,-2.28724 0.6497824,1.31255 0.6757748,1.76739 0.8187284,-1.91037 0.636791,0.0521 0.9876747,0.83176 2.2352542,-1.19565 3.1319602,-2.26124 0.4158794,-4.40555 -1.858383,-1.48152 -3.89870351,-5.05531 -2.4431891,-6.5758 1.0526509,0.67575 1.9623481,1.80635 2.4951741,2.78105 0.7277549,1.32556 -0.3638947,2.22228 0.090949,3.50883 1.2345884,0.0649 1.585472,-0.93568 1.5204958,-1.83239 0.5718097,1.32556 0.4678644,2.82006 1.6504481,4.05468 0.6497873,0.67575 1.6764456,-0.44173 1.7544181,-0.77978 0.5068342,-2.22223 0.8707132,-4.2236 -1.1046307,-6.45881 -1.6894419,-1.91037 -2.1962705,-4.11963 -4.1326262,-5.86108 -0.7407559,-0.66278 -0.5458222,-1.20858 -0.688771,-1.94934 C 2.6733069,99.530068 1.464721,98.074538 0.90590743,96.489046 0.04819027,94.006888 1.1918245,91.134843 2.4004106,89.159513 3.8039402,86.846282 4.7786187,85.143848 4.9215724,82.284776 4.9735573,80.959208 3.6999752,79.958572 3.4530566,78.684989 3.1931319,77.346402 4.3107738,76.267788 4.7266337,75.13714 5.324436,73.4607 5.6363358,70.601675 7.8066138,69.964884 c 0.4548437,1.026629 0.1039699,1.97533 -0.1299623,2.898038 -0.3248814,1.299574 0.3379021,2.729062 0.2209114,4.06765 2.9500181,-0.948701 2.7160951,-2.378238 3.7947391,-4.613492 1.10463,-2.313232 3.495835,-3.313868 6.133963,-4.093642 3.716761,-1.104606 6.042989,-3.469823 8.759089,-5.718098 0.701763,-0.584806 1.364545,-2.105292 2.378208,-2.222233 2.274243,-0.259925 3.924696,-1.065643 5.17228,-2.651134 0.02604,2.300211 2.456186,0.2727 3.534824,0.402908 1.026663,0.116941 1.624461,1.026678 2.768081,1.026678 1.455519,0 2.742092,-0.441725 3.846723,-1.078663 2.404201,-1.390524 3.378879,-2.962994 6.679778,-2.962994 1.351554,0 2.807069,-0.01474 3.742759,-0.818738 1.065646,-0.922709 1.195604,-2.573157 3.118963,-2.573157 2.911034,0 4.769418,0.428949 7.563485,-0.247149 3.209937,-0.779726 6.146959,-1.481523 8.954028,-2.937003 2.274243,-1.169612 10.565488,-6.017036 8.096306,-9.668806 1.05265,0.0909 1.260581,-0.376867 1.390539,-1.130647 0.194919,-1.195605 1.377542,-1.598464 2.378212,-2.222235 1.455514,-0.883694 4.808401,-2.287239 2.820061,-4.067649 -1.689437,-1.520486 -1.533487,-5.796076 -0.883705,-7.355574 0.376866,-0.896667 2.326228,-4.249598 4.041657,-2.742084 -1.169612,-1.55945 0.194919,-1.390524 1.234588,-1.923344 1.273577,-0.649812 0.896702,-3.067014 2.677112,-3.872731 0.961682,0.9487 -1.169612,3.093006 1.390538,3.015028 -1.416531,2.222234 4.314559,6.588773 4.431519,8.979982 1.16961,-1.676441 -0.57181,-4.392532 0.35088,-6.042979 1.15661,0.481032 1.78041,1.520485 2.67711,2.274266 -0.40286,-1.46855 -0.84472,-2.534192 0.6108,-3.443879 -1.20861,0.376866 -4.27558,-1.87136 -3.36589,-2.937002 -0.74075,-0.02456 -1.23458,-0.415683 -1.31256,-1.078663 1.55948,0.961672 0.45484,-0.233882 1.66345,-0.441724 1.44251,-0.246658 -0.42885,-1.728426 -0.81873,-2.248226 1.18261,-0.727789 3.74275,0.130208 1.79341,0.506828 0.79273,0.24715 1.37754,0.792697 1.11762,1.507466 0.83172,-0.207842 0.79274,-1.312547 1.65045,-1.390524 1.13063,-0.0909 1.28658,0.597826 2.09231,1.117627 1.01366,0.649763 1.35155,-0.519801 2.3912,-0.02457 1.16962,0.558813 2.27425,-0.142983 3.45685,0.454991 -1.09163,-1.000685 -1.84538,-0.481032 -3.07998,-0.831709 -1.71542,-0.506829 -0.70176,-1.5595 -0.75374,-2.59915 0.25993,0.285967 0.53283,0.558814 0.81872,0.831711 1.2086,-0.818689 0.28593,-2.625093 1.78041,-3.2618829 -0.85771,-0.2727 -1.35154,0.1817989 -1.45551,0.8446809 -1.36454,-1.0916349 -2.58614,-3.3918459 -0.76675,-4.1975629 0.83173,-0.376866 3.44386,-1.130648 1.78041,-2.352245 1.03966,0.05208 1.91037,0.701748 2.79408,1.195604 0.3119,0.324784 0.61079,0.649763 0.89669,0.987665 0.53283,0.116941 1.05266,0.233884 1.57248,0.33805 -1.59846,-0.766704 -0.76674,-2.248177 -2.95,-2.274169 0.28591,-0.597827 0.77973,-1.013657 1.4685,-1.24759 -0.68877,0.116942 -1.27357,0.402908 -1.74142,0.83171 -0.28591,-1.130599 2.48218,-3.30089596 2.58614,-1.416516 -0.18195,-1.92334496 1.67645,0.493808 2.97602,0.24715 -0.64979,-0.779726 -1.89737,-1.611435 -1.23459,-2.58612796 -2.85905,-0.142983 0.20793,-2.37823304 0.2469,-3.27489904 1.22159,1.013657 1.39053,-0.740761 2.65112,-0.07813 0.18195,-0.961672 -0.026,-1.975378 0,-2.950022 1.44251,0.259925 1.15661,2.560136 0.44187,3.612806 1.54649,-1.793431 0.76674,-1.923393 2.58614,0.169025 -0.078,-0.909688 1.03966,-0.870723 1.11763,-1.676441 0.0389,-0.493856 0.29889,-1.767439 0.46786,-2.18327 0.2729,-0.675804 1.65046,-0.63679 0.75375,-1.637476 -0.29889,-0.207841 -0.5978,-0.259924 -0.92269,-0.155758 -0.3379,0.01474 -1.49451,-1.624456 0.46787,-0.389641 -0.53282,-1.013657 1.42952,-1.7804111 0.35087,-0.155759 1.88438,-1.7024331 -0.20794,2.222234 2.19626,1.676441 -0.63678,-1.026678 0.37687,-1.923345 1.45553,-1.936365 -0.53284,0.753732 0.23393,1.442508 0.81871,2.014343 0.79274,-0.896716 2.61213,-1.260611 3.00201,-2.443194 0.31192,-0.9227081 -1.41652,-1.3385391 0.40287,-2.0403361 1.03964,-0.389641 1.84538,2.0273141 3.56081,2.0663271 1.45552,0.03931 1.70243,0.688777 2.83306,1.637478 1.42952,1.195554 2.32623,2.755054 3.74275,3.963679 0.84471,0.727741 2.10531,1.611435 2.13129,2.71608604 0.0389,1.208576 -0.64978,2.31323096 -0.66278,3.52180696 -0.0127,1.130649 0.28591,2.820061 -0.6108,3.65182 1.10464,-0.519849 0.052,-1.806403 0.79274,-2.352245 1.00067,-0.740761 1.63746,0.870724 1.88437,1.507514 0.32489,-1.169611 -1.50752,-2.287239 -1.09166,-3.430859 0.54581,-1.40354396 1.58548,0.104165 2.67712,-0.33805 -1.63745,-4.02863 7.5245,-2.61211996 7.13461,1.338539 1.42953,-0.519799 0.57182,-2.10529196 0.46787,-3.17093396 2.13129,0.155759 3.39187,3.87273096 5.09431,3.50883696 -0.57181,-0.883695 -1.88438,-2.50815096 -0.75375,-3.30089596 0.79273,-0.545843 2.01433,-0.0909 2.75508,-0.805718 -1.62446,0.195067 -2.67711,-0.247149 -3.41787,-1.67643604 0.74076,-0.03931 1.36456,-0.259924 1.89738,-0.662784 -1.41653,0.402908 -4.8214,-0.623819 -3.84672,-2.404229 0.38988,-0.72774 0.48083,-1.819375 1.14362,-2.378189 0.58479,-0.506828 2.0923,-0.155758 2.33921,-1.000686 0.37687,-1.3645301 0.42885,-3.0669641 1.03967,-4.3275741 0.5588,-1.169611 1.31255,0.142983 2.15726,-0.5198 0.54583,-0.428949 1.8584,-1.97533 2.7681,-1.533507 -0.87072,-0.714768 -2.00134,-2.040334 -1.91036,-3.105977 0.14293,-1.793382 1.14361,-0.3636 1.87137,-1.650448 0.49383,-0.857703 0.13001,-1.728426 1.20859,-2.313232 0.77974,-0.42895 1.48152,0.805767 2.4302,0.610798 -1.07864,-0.363599 -1.72842,-2.898037 -0.61079,-3.261883 1.1826,-0.376865 2.36521,2.18327 3.52182,2.417202 -1.29956,-0.792746 -1.87139,-3.690783 0.48084,-2.755104 0.18195,-0.701747 -0.50683,-1.559499 0.45485,-1.923345 0.97467,-0.36409 1.52049,0.974644 1.97534,-0.428949 1.97534,3.222968 11.00734,-0.116942 11.4492,1.845416 -0.18194,-1.390524 1.31256,-2.391208 2.80708,-1.585491 -1.63746,-1.377552 -0.23393,-3.456851 -0.84473,-5.029322 -0.9227,-2.391199 -3.46985,-2.053297 -5.34123,-1.260551 -0.091,-1.14362 -1.76741,-1.650449 -2.54714,-2.18327 -0.51984,-0.33805 1.37754,-1.455529 1.46849,-1.767439 1.01368,0.649812 1.33857,1.663469 1.75442,2.612121 0.48085,-0.792697 0.48085,-1.754418 -0.15595,-2.612121 0.67578,0.974694 1.39053,1.052671 1.88438,0.0909 0.49383,1.26056 2.85905,2.703069 3.80774,3.85971 0.50683,-0.675805 2.31322,-0.753782 1.62445,-1.936366 1.29957,0.740761 2.22226,3.989663 3.6388,3.976641 1.26057,-0.01474 2.95002,-0.142983 2.97601,1.14362 1.41652,0.03931 2.22225,-1.520486 3.71676,-1.091635 -2.22226,1.624456 3.20994,1.260611 2.72909,3.521858 0.72777,-1.520486 1.09164,-0.428949 2.40421,-0.207842 1.49451,0.233884 2.15727,-0.779725 3.46984,-0.974693 0.68877,2.677127 3.53483,2.30026 5.56215,2.859074 -1.7804,-2.105292 4.88638,-1.078663 2.53416,-2.859074 1.18262,-0.2727 3.041,-0.545793 2.84606,-2.001322 1.01366,1.078664 -0.5718,1.793432 -1.29957,2.261247 1.79341,0 0.46787,0.532821 -0.091,1.195604 -0.54581,0.636791 -0.67576,1.299575 -0.0388,2.0793 0.54583,-0.818689 1.2606,-1.754418 2.49519,-1.780411 -1.09164,1.182633 0.37687,0.519849 0.50683,1.871409 0.0388,0.415683 0.20794,1.052621 0.79273,1.195605 1.22159,0.298741 2.20927,-1.195605 2.52118,-1.962358 -3.39189,-0.05208 1.61144,-3.053993 2.15727,-3.599786 -1.53349,0.766704 0.13001,3.456852 1.54649,3.84669 -1.03966,-1.364532 0.85772,-1.14362 1.40353,-0.558814 0.48083,0.493857 0.22091,1.26061 0.026,1.728426 -0.64978,1.650447 -2.0923,3.937687 -3.93768,4.626463 0.67576,0.493857 1.22159,1.078663 1.65044,1.754418 -0.35088,-0.207842 -0.72776,-0.415683 -1.10463,-0.597777 -0.16897,1.312545 -0.10402,2.495129 -1.55947,3.118949 -0.10403,-0.558814 -0.14294,-1.117627 -0.14294,-1.676441 -0.66278,0.376866 -1.2216,0.857702 -1.68944,1.416515 -0.38989,-2.014342 -1.5075,-0.05208 -1.41653,0.675805 -0.53282,-1.819423 -2.35221,0.3636 -0.93568,1.416516 -2.88505,-0.481033 -0.22092,4.3145531 1.02665,2.014343 -1.05266,2.5990991 -2.10531,4.9253521 -3.66479,7.2775481 -0.66277,1.000685 -1.32555,2.040335 -2.22225,2.872045 -1.03966,0.961672 -1.72843,0.597827 -0.53283,2.28723504 1.67644,2.30025996 4.86038,3.09300496 6.93969,5.08130696 1.23459,1.15664 2.09231,2.222282 3.67779,3.028 1.10463,0.558813 2.22225,1.260609 2.01433,2.4302219 1.01365,-0.364092 2.27424,0.415683 2.82005,-0.675804 1.31257,1.442557 3.24893,2.144304 5.02933,2.937051 2.28727,1.013657 3.50886,2.430173 5.26327,4.028636 3.00196,2.768076 6.39386,1.78041 9.81175,3.703805 1.81937,1.026628 1.02662,3.13192 2.70307,4.171569 0.90969,0.571835 1.97532,0.532822 2.87204,1.208626 0.93568,0.714769 1.98835,1.182584 3.028,1.76739 3.15797,1.767439 8.92805,0.06485 10.04568,-2.599099 1.61142,-3.807775 3.89867,-7.589507 4.8084,-11.696122 0.51981,-2.365216 0.77973,-4.7954379 1.28656,-7.1606549 0.53282,-2.521122 1.36453,-4.418524 0.75373,-7.18659796 -0.46776,-2.17024404 -0.50683,-3.46981804 0.10413,-5.43217604 0.59783,-1.988351 -1.6894,-3.74277 -0.81868,-5.9260381 0.70175,-1.754419 2.44319,-3.170934 1.53345,-5.263255 -1.02662,-2.40418 1.26062,-2.50815 1.50752,-4.483529 0.63679,0.467767 1.00068,1.05267 1.10466,1.754418 -0.13022,-0.675755 0.2727,-1.182584 0.92266,-1.416516 -0.39014,-0.05209 -2.63812,-1.962358 -2.88502,-2.352196 -0.28597,0.233883 -0.55882,0.493808 -0.83171,0.753733 -0.35082,-0.961672 0.20783,-2.248275 0.83171,-2.91101 0.2211,-0.285966 0.54578,-0.441724 0.9487,-0.441724 -0.64982,-0.922709 -0.14299,-1.832396 0.40291,-2.521172 0.312,0.649812 0.88368,0.987665 1.62445,0.844731 -0.63684,-3.521857 1.39052,-6.172932 1.3775,-9.564827 0,-1.104606 -0.10413,-1.819375 1.16962,-2.313227 1.20862,-0.455002 1.5335,-2.456172 3.27495,-1.455542 -0.39013,0.54585 -0.71482,1.13065 -0.96173,1.754426 0.29875,-0.181799 0.62383,-0.350822 0.96173,-0.506836 0.54579,1.06565 1.80636,1.5855 1.75436,2.781104 -0.0246,0.493857 0.0909,0.974693 0.37687,1.442509 0.53283,1.091635 -0.0648,1.091635 0.0781,2.066327 0.15576,1.03965 0.0649,2.105282 0.40291,3.131961 0.45499,1.338538 2.76807,1.182584 3.87272,1.66342 -1.7154,1.234618 -2.13127,2.521171 -0.44172,3.989672 1.79339,1.546478 1.71541,2.859074 1.49449,4.80841 2.05332,-0.36409 2.13129,7.51153 1.81939,8.460181 -0.37687,1.14362 0.51984,2.0143431 1.07865,3.0799851 0.6368,1.247589 0.10414,2.573157 0.92271,3.794754 1.42954,2.170248 4.31456,0.805717 4.36654,-1.091635 2.20926,2.118264 2.4172,-2.729111 3.95071,1.832395 0.35082,1.052622 2.963,2.326204 3.89867,3.31386904 0.11695,0.130208 3.09301,1.715449 3.35289,1.741441 -0.48104,0.85770196 -1.93637,2.56013596 0.14298,3.17093396 -2.01435,2.794068 1.76743,5.848061 1.1956,8.8760609 -0.36409,1.88438 -0.5848,2.833032 0.88375,4.548486 0.7407,0.870723 2.75505,2.521172 2.26125,3.599785 0.48102,-0.428949 1.09158,-0.688777 1.83234,-0.753733 -0.1302,1.76739 -0.29874,2.482159 0.62382,4.327575 0.68878,1.377551 0.97469,2.820061 1.03965,4.223605 0.0649,1.546478 -0.63679,2.560135 -1.03965,3.937687 -0.48103,1.67644 1.7414,2.040286 1.88438,3.378874 0.11694,1.065642 1.62445,0.259924 1.37755,1.598463 -0.20784,1.169612 -1.42954,2.092272 -0.32478,3.430859 0.64977,0.779725 2.61212,2.456166 3.75574,2.365216 1.05262,-0.09089 2.50815,2.274218 3.22292,0.389642 0.35082,2.196241 4.4965,2.547163 3.76875,1.078614 0.90969,1.234617 1.2476,4.639483 3.18396,5.12032 -0.10413,-0.649812 0.25993,-1.052671 1.00064,-1.091634 -0.19507,1.741397 2.02731,1.871359 3.49586,2.313231 1.20858,0.364091 0.41569,2.534143 2.46914,1.949337 0.45499,-0.129717 -0.10413,-0.857702 0.31201,-1.026678 0.87073,-0.350825 1.09163,0.987714 1.28661,1.338587 0.41567,0.766754 1.29952,0.33805 1.87135,1.03965 0.66279,0.779725 0.84474,1.728426 1.48152,2.521172 -0.71477,-0.870723 -2.09232,-1.026678 -2.32625,-0.05208 -0.28596,1.234569 1.9234,2.573156 1.27358,3.742768 4.74341,-1.637476 3.07999,6.510795 6.62778,6.445838 -0.90968,1.24759 -0.33804,3.248911 0.23389,4.782418 0.46776,1.286554 2.4822,3.534829 1.63748,4.69142 1.70243,-0.662784 2.07929,-0.169025 3.31392,1.26061 0.46776,-1.481522 -0.98772,-3.13197 -0.0393,-4.522493 1.88433,1.221548 3.14494,3.079936 5.2632,4.028636 0.14299,-0.467766 -0.32478,-1.390523 0.0148,-1.76739 0.64982,-0.688776 1.42955,-0.155758 1.72843,0.662735 0.79274,2.170298 0.88375,3.534828 0.59782,5.575164 -0.15575,1.208625 0.5458,2.443194 0.41569,3.690783 -0.24715,2.521172 1.32557,0.909688 2.59915,2.482159 -0.41569,-0.610799 -0.46776,-1.169613 -0.14298,-1.676441 2.28724,0.597826 3.31386,5.055314 0.42894,2.014343 0.58482,1.338539 6.13393,5.770082 5.51016,3.430859 2.58614,1.533507 2.65114,3.781732 4.31456,5.783103 0.79275,0.948652 2.01435,1.156591 2.91106,1.936317 1.07861,0.922706 0.81874,2.053356 1.32557,3.118996 1.28655,2.31323 3.58676,1.42954 4.10661,3.67777 0.19507,0.84473 -0.51985,1.42953 -0.40291,2.26124 0.16902,1.13065 1.66347,1.78041 1.5595,3.10598 0.19506,-0.29874 0.40291,-0.58481 0.64977,-0.84473 1.85838,1.03965 0.0781,2.46919 0.0393,3.43086 -0.0648,1.74144 0.0909,3.83372 0.44173,5.65314 0.25993,1.39052 1.14362,2.62509 0.14298,3.5478 -1.09163,1.01366 -0.61079,1.97538 0.89672,3.22292 1.01365,0.84473 1.76739,3.20995 1.89735,4.2236 0.0909,0.67581 0.0393,1.39058 0.33805,2.09232 0.32478,0.76676 1.18259,1.23457 1.2866,2.06633 0.48104,4.01567 -0.72778,6.5758 -2.13133,9.90269 -1.52049,3.56082 -1.54647,7.65446 -2.97601,11.12429 -1.19561,2.92403 0.39014,6.43286 -0.7667,9.33089 -0.55882,1.41652 -0.83176,2.98904 -1.50752,4.34055 -0.66278,1.33859 -2.43023,2.05336 -2.70312,3.59983 -0.1818,0.98767 0.42895,2.82007 -0.0909,3.62578 -0.29875,0.46777 -1.27359,0.42895 -1.70244,0.81874 -0.80572,0.68877 -1.41652,1.74145 -2.7811,1.93637 2.63817,0.20783 -1.05262,1.03964 -1.62445,1.22159 -1.50747,0.46777 -2.39121,1.81938 -2.91101,3.00202 -0.37686,0.84467 -1.54648,1.18257 -1.94939,2.00132 -0.57179,1.15659 0.32478,2.37819 -2.15727,2.15727 0.20784,0.75373 0.57183,1.01365 1.06563,0.75373 -0.28596,0.90974 -0.32478,1.93637 -0.6108,2.82006 -0.23387,0.7018 -1.22154,0.46777 -1.39052,1.29958 -0.35082,1.71545 -2.43017,2.26124 -2.58612,4.09364 -0.0649,0.9227 -0.0393,0.62382 -0.84473,0.77978 -0.0246,0 0.23388,1.62445 0.0909,1.89734 -0.27269,0.46777 -2.07929,2.65114 -0.15576,3.19694 -0.0781,0.66278 -0.24714,1.42953 -1.29957,0 -0.36409,0.53281 0.62382,1.65044 -0.36409,1.7804 -1.2216,0.16902 -1.68941,0.49386 -2.0533,1.37755 -0.93569,2.20927 -2.14431,4.34055 -2.8071,6.69279 -0.57178,2.00132 -0.35082,4.40551 -0.92265,6.43283 -0.33805,1.15663 -0.48103,4.27559 -1.65046,4.83439 1.61144,0.27271 1.42955,2.11832 1.36454,2.63817 -0.0781,0.48103 -0.19507,0.96168 -0.455,1.35156 -0.4029,0.61074 -1.55949,0.0909 -2.1183,0.41568 -1.70244,1.01366 -2.0793,2.27422 -4.84738,2.5731 -2.93705,0.31202 -6.27691,0.0521 -9.26595,0.31202 -6.02995,0.50682 -9.36987,3.74277 -12.65774,6.69279 -1.50752,1.33854 -3.53483,2.00132 -6.25097,2.20926 -2.6641,0.1818 -2.20926,-0.25992 -1.33854,1.97533 0.36409,-0.44173 0.87072,-0.74072 1.5595,-0.92266 0.33805,1.1306 0.0393,2.6901 -0.96167,3.1839 -0.53282,-0.74071 -0.92271,-1.94934 -1.93637,-2.58612 -1.55949,-0.98767 -1.48151,0.10413 -2.59915,0.15575 -0.24715,-0.84473 -0.88369,-1.74139 -1.28655,-2.61212 -1.15663,0.23389 -1.71545,0.83172 -2.80709,-0.59783 -1.1956,-1.53345 0.40291,-1.57247 0.23389,-2.83302 -0.23389,-1.81943 -3.59979,0.81873 -3.74277,1.00064 -1.16961,1.44255 -2.31319,0.87071 -4.37951,-0.75374 2.11826,1.26061 2.95002,-0.16902 3.56082,-0.92271 1.00063,-1.24759 -0.32479,-2.06628 -1.2216,-3.70375 -2.4172,0.36409 -3.83372,1.91037 -5.4192,3.01498 1.18257,0.28596 1.97532,-0.16903 3.2749,0.42895 -0.25993,1.09168 -2.3522,0.77977 -3.43087,1.18263 -1.55944,0.57183 -3.15795,1.50751 -4.10661,2.54716 -0.96172,1.05262 -2.31323,1.59847 -3.6388,2.3522 -1.11762,0.62382 -2.02731,-0.41569 -3.9767,-1.07862 -3.35287,-1.13065 -6.49781,-3.56082 -9.44785,-3.19697 -1.63747,0.20784 -3.41788,-1.48147 -5.05531,-1.18258 -0.90968,0.15575 -0.79274,0.76675 -1.42953,1.09163 -0.48104,0.24715 -1.52049,-0.0649 -2.11832,0.0521 1.18264,-2.61212 -7.19956,-3.26194 -8.82403,-4.39254 -1.61148,-1.14362 -2.976,-2.65113 -3.79475,-4.02868 -0.50682,-0.88369 -2.3912,-1.42949 -3.04097,-2.98899 -1.13065,-2.74208 1.14357,-4.02863 0.40291,-6.51085 -1.18263,-3.96367 -4.80841,-7.34254 -9.47389,-10.42253 3.3009,1.41651 6.06897,4.00269 7.69348,6.47188 -0.51984,-1.67644 -1.98835,-3.09301 -3.89873,-4.45754 -1.26055,-0.89672 -3.75574,-2.67712 -1.1956,-2.52117 0.27271,0.5848 0.5458,1.18263 0.80572,1.76743 1.10466,-0.18179 0.5848,-0.76675 0.20784,-1.57247 -0.44173,-0.97468 1.61149,-0.74075 0.49385,-1.71545 -1.2606,-1.1046 -4.76939,0.19507 -3.002,1.52049 -0.57179,-0.1302 -4.09364,-0.44172 -0.80572,0.32478 -2.49517,-0.20784 -5.40624,2.49518 -8.4732,0.67581 0.33805,-1.19561 1.83239,-1.8324 2.87205,-2.57316 0.93568,-0.64982 0.92271,-2.06632 0.94869,-3.17093 0.35083,-2.92403 -1.36452,-6.10799 -3.66478,-9.27892 -0.67576,0.45499 -0.33805,1.29952 -0.75374,1.88433 -0.48103,0.66279 -1.10465,1.23462 -1.40354,1.98834 -0.63679,1.53352 -1.02668,3.24892 -1.45553,4.88639 -0.312,1.80641 -0.79275,1.4685 -3.14494,1.28661 -2.23527,-0.1818 -3.44386,1.68941 -5.83507,1.61144 -0.25993,-1.10462 0.44187,-2.36522 1.07865,-3.10598 1.10462,-1.23457 4.02865,0.37686 5.0683,-0.92266 1.80641,-2.2613 -0.2209,-6.28994 1.2606,-8.81111 0.8317,-1.40354 1.26055,-2.35219 2.76806,-3.30089 1.76745,-1.10461 0.29874,-2.4432 0.20785,-4.19761 -0.0521,-1.00064 1.15663,-1.15659 1.7804,-1.70244 0.20785,-0.1818 -0.64975,-1.50751 -0.76675,-1.72842 -0.28596,-0.5848 -0.41568,-3.3009 -1.65045,-3.69079 -0.4938,-0.16902 0.14299,2.57316 0.11695,2.8461 -0.19507,1.41652 -2.35222,2.33918 -3.09297,3.54781 -0.72776,1.1956 -1.27357,2.48215 -2.07931,3.6128 -0.33786,0.49381 -0.54582,1.29957 -1.27358,1.52049 -0.62378,0.1818 -1.54647,-0.33805 -2.14428,-0.16903 -1.13062,0.35083 -1.92337,1.72843 -3.17095,2.18327 -1.8324,0.66279 -2.79407,2.09232 -3.71676,3.45686 -0.3379,0.49385 -1.35156,2.87204 -2.15729,2.74207 -2.26124,-0.36409 -1.45551,2.23527 -2.30022,3.028 0.5848,-0.24715 1.1826,-0.46776 1.79339,-0.67575 -0.51981,0.75374 -0.13001,1.87136 -0.71476,2.59915 -1.44252,-1.72848 -2.79407,-0.59783 -4.2236,-1.96235 -1.02666,-0.9747 -2.61213,-3.119 -4.02865,-2.23527 0.16892,-0.6498 0.51983,-1.22159 1.03965,-1.67643 0.2469,1.1046 2.31323,2.02731 1.89737,0.53277 -0.48084,-1.72838 -0.74075,-3.44383 -1.5335,-5.18523 -0.74074,-1.63747 -3.84672,-2.69015 -3.76874,-4.39258 0.026,-0.67576 0.2469,-1.3775 -0.53282,-2.11826 -0.6108,-0.5848 -1.1956,-0.92271 -0.9227,-1.57247 -0.64978,0.66274 -1.70243,-0.15576 -2.65112,0.0781 -1.33855,0.33804 -1.10464,-0.55882 -1.63745,-1.09164 -0.25993,-0.28597 -1.67644,-1.74145 -1.55948,-1.97533 0.15595,-0.33805 1.01365,-2.79407 1.35155,-0.7018 0.67577,-0.5848 1.06565,-1.85839 -0.15596,-2.82006 -1.42953,-1.1306 -2.49516,-0.16902 -3.53482,0.0393 -0.0388,-0.5588 0.6498,-1.33853 0.3119,-1.94933 -0.44187,-0.80577 -1.63745,-1.22159 -2.1053,-2.06633 -0.23393,-0.41568 -2.91103,0.77973 -3.028,0.76676 -2.11829,-0.20785 -4.34056,-1.70244 -6.43286,-2.37824 -2.32622,-0.76671 -1.66344,1.09163 -3.3009,0.85775 -4.17161,-0.59783 -7.77141,-5.1983 -12.07299,-5.58814 -1.44251,-0.13021 -2.19626,0.57179 -3.26191,0.93568 -1.29956,0.45499 -3.23593,-0.0909 -4.76942,-0.10416 -3.87271,-0.0393 -8.34322,0.13021 -11.81307,0.83171 -6.43287,1.29957 -11.17628,4.73043 -17.7781,5.95202 -3.18394,0.58482 -6.3159,0.48104 -9.86371,0.20785 -4.34057,-0.32478 -5.93903,1.18258 -8.86306,2.72906 -2.40421,1.26061 -5.10731,2.93706 -7.97935,3.65182 -3.06698,0.77973 -5.26325,0.96168 -6.38088,3.5478 -0.87071,1.97538 -1.75442,3.85971 -3.44385,5.35425 -0.31191,0.27271 -1.58548,1.65045 -2.23526,1.41652 -1.780406,-0.62382 -2.066316,0.62377 -3.521827,0.84473 0.103973,-2.06633 -7.004675,-1.28661 -7.940366,-0.92271 -1.533486,0.59783 -1.455514,1.54648 -3.053982,-0.53282 -0.03882,-0.0521 -5.094308,-0.32478 -5.744091,-0.39013 -2.820065,-0.2727 -5.770082,0.39013 -8.265252,0.81873 -1.884376,0.32479 -3.677782,0.1818 -5.562152,0.44173 -2.391205,0.33805 -7.680447,1.36454 -5.770084,4.45749 -0.688771,-0.25993 -2.105301,0.66279 -2.625126,0.98772 -0.740756,0.46776 -2.066313,-0.58482 -3.040991,-0.455 -0.961683,0.13021 -1.403535,0.8837 -1.910364,1.42949 -0.545822,0.59783 -1.169612,0.79275 -2.040325,1.11763 -1.260581,0.45499 -1.260581,1.15664 -2.0923,1.88443 -1.104636,0.97464 -3.092975,1.45548 -5.02933,1.40349 2.872045,0.89672 -2.508166,0.49385 -3.482843,0.41569 -3.456853,-0.28597 -6.640792,-0.11695 -10.214605,-0.67577 0.02604,-0.27269 0.03882,-0.5588 0.06495,-0.8317 -2.729092,0.40291 -4.84739,-1.67644 -6.67978,-3.31392 -1.494504,-1.35155 -5.146289,-4.09364 -6.458855,-2.30026 -2.326228,-1.57247 -2.885042,-8.88903 1.14362,-7.13461"
       id="path3348"
       inkscape:connector-curvature="0"
       style="fill:#ff8000;fill-opacity:0.58823532;stroke:#ffffff;stroke-width:0.99000001;stroke-miterlimit:3.97446823;stroke-dasharray:none;stroke-opacity:1" />
    <ellipse
       style="fill:#ff5400;fill-opacity:1;stroke:#ffffff;stroke-width:1.39756751;stroke-miterlimit:4;stroke-dasharray:none;stroke-opacity:1"
       id="path9289"
       cx="383.82104"
       cy="108.73486"
       rx="5.4764757"
       ry="5.4784341" />
    <ellipse
       style="fill:#ff5400;fill-opacity:1;stroke:#ffffff;stroke-width:1.39756751;stroke-miterlimit:4;stroke-dasharray:none;stroke-opacity:1"
       id="path9289-0"
       cx="388.25546"
       cy="123.43889"
       rx="5.4764757"
       ry="5.4784341" />
    <ellipse
       style="fill:#ff5400;fill-opacity:1;stroke:#ffffff;stroke-width:1.39756751;stroke-miterlimit:4;stroke-dasharray:none;stroke-opacity:1"
       id="path9289-8"
       cx="391.20441"
       cy="138.18343"
       rx="5.4764757"
       ry="5.4784341" />
    <ellipse
       style="fill:#ff5400;fill-opacity:1;stroke:#ffffff;stroke-width:1.39756751;stroke-miterlimit:4;stroke-dasharray:none;stroke-opacity:1"
       id="path9289-2"
       cx="386.57065"
       cy="150.39986"
       rx="5.4764757"
       ry="5.4784341" />
    <ellipse
       style="fill:#ff5400;fill-opacity:1;stroke:#ffffff;stroke-width:1.39756751;stroke-miterlimit:4;stroke-dasharray:none;stroke-opacity:1"
       id="path9289-6"
       cx="24.701883"
       cy="163.03796"
       rx="5.4764757"
       ry="5.4784341" />
  </g>
</svg>
